<svg id="drawing" xmlns="http://www.w3.org/2000/svg" version="1.1" xmlns:xlink="http://www.w3.org/1999/xlink" width="686" height="256" viewBox="140 184 686 256"><defs id="SvgjsDefs1001"><marker id="SvgjsMarker1012" markerWidth="16.23606797749979" markerHeight="10.550836550532098" refX="-1" refY="3.8990363547948754" viewBox="-1 -1.3763819204711738 16.23606797749979 10.550836550532098" orient="auto" markerUnits="userSpaceOnUse"><path id="SvgjsPath1013" d="M12 3.899036407470703L0 7.798072814941406V0Z " stroke="#323232" stroke-width="2" fill="#323232" transform="matrix(1,0,0,1,0,0)"></path></marker></defs><g id="SvgjsG1007"><path id="SvgjsPath1008" d="M140 184H826V440H140V184Z " fill-opacity="0" fill="none"></path><g id="SvgjsG1009"><g id="SvgjsG1010"><path id="SvgjsPath1011" d="M434 248C473 248 519.2000122070312 248 560.763916015625 248 " stroke-dasharray="none" stroke="#323232" stroke-width="2" fill="none" marker-end="url(#SvgjsMarker1012)"></path><g id="SvgjsG1014" transform="matrix(1 0 0 1 496.4204915028126 239.875)" fill="#ffffff"><path id="SvgjsPath1015" d="M0 0H0V0H0V0Z " fill="#ffffff" transform="translate(0 0)"></path><text id="SvgjsText1016" font-family="Microsoft Yahei,宋体" fill="#000000" font-size="13" font-weight="normal" font-style="normal" text-anchor="middle" text-decoration="blink" x="0" y="0"></text></g></g><g id="SvgjsG1017" transform="translate(160 208)" opacity="1"><path id="SvgjsPath1018" d="M0 4Q0 0 4 0L270 0Q274 0 274 4L274 208Q274 212 270 212L4 212Q0 212 0 208Z " stroke-dasharray="none" stroke="#323232" stroke-width="2" fill="#ffffff" opacity="1"></path><path id="SvgjsPath1019" d="M0 30L274 30M0 74L274 74 " stroke-dasharray="none" stroke="#323232" stroke-width="2" fill="none" opacity="1"></path><g id="SvgjsG1020" transform="matrix(1 0 0 1 10 6.875)" fill="#ffffff"><text id="SvgjsText1021" font-family="微软雅黑,黑体,Arial,宋体" fill="#000000" font-size="13" font-weight="bold" font-style="normal" text-anchor="middle" text-decoration="blink" x="127" y="15">daocollection</text></g><g id="SvgjsG1022" transform="matrix(1 0 0 1 10 33.25)" fill="#ffffff"><text id="SvgjsText1023" font-family="微软雅黑,黑体,Arial,宋体" fill="#000000" font-size="13" font-weight="false" font-style="normal" text-anchor="start" text-decoration="blink" x="0" y="15">#position:Integer</text><text id="SvgjsText1024" font-family="微软雅黑,黑体,Arial,宋体" fill="#000000" font-size="13" font-weight="false" font-style="normal" text-anchor="start" text-decoration="blink" x="0" y="31.25">#storage:Array</text></g><g id="SvgjsG1025" transform="matrix(1 0 0 1 10 78.5)" fill="#ffffff"><text id="SvgjsText1026" font-family="微软雅黑,黑体,Arial,宋体" fill="#000000" font-size="13" font-weight="false" font-style="normal" text-anchor="start" text-decoration="blink" x="0" y="15">+getwithdata()</text><text id="SvgjsText1027" font-family="微软雅黑,黑体,Arial,宋体" fill="#000000" font-size="13" font-weight="false" font-style="normal" text-anchor="start" text-decoration="blink" x="0" y="31.25">#populate(data:Array,objecttype:String)</text><text id="SvgjsText1028" font-family="微软雅黑,黑体,Arial,宋体" fill="#000000" font-size="13" font-weight="false" font-style="normal" text-anchor="start" text-decoration="blink" x="0" y="47.5">+saveAll()</text><text id="SvgjsText1029" font-family="微软雅黑,黑体,Arial,宋体" fill="#000000" font-size="13" font-weight="false" font-style="normal" text-anchor="start" text-decoration="blink" x="0" y="63.75">+current():Mixed</text><text id="SvgjsText1030" font-family="微软雅黑,黑体,Arial,宋体" fill="#000000" font-size="13" font-weight="false" font-style="normal" text-anchor="start" text-decoration="blink" x="0" y="80">+key():Integer</text><text id="SvgjsText1031" font-family="微软雅黑,黑体,Arial,宋体" fill="#000000" font-size="13" font-weight="false" font-style="normal" text-anchor="start" text-decoration="blink" x="0" y="96.25">+next()</text><text id="SvgjsText1032" font-family="微软雅黑,黑体,Arial,宋体" fill="#000000" font-size="13" font-weight="false" font-style="normal" text-anchor="start" text-decoration="blink" x="0" y="112.5">+rewind()</text><text id="SvgjsText1033" font-family="微软雅黑,黑体,Arial,宋体" fill="#000000" font-size="13" font-weight="false" font-style="normal" text-anchor="start" text-decoration="blink" x="0" y="128.75">+valid():Boolean</text></g></g><g id="SvgjsG1034" transform="translate(576 204)" opacity="1"><path id="SvgjsPath1035" d="M0 4Q0 0 4 0L226 0Q230 0 230 4L230 84Q230 88 226 88L4 88Q0 88 0 84Z " stroke-dasharray="none" stroke="#323232" stroke-width="2" fill="#ffffff" opacity="1"></path><path id="SvgjsPath1036" d="M0 33L230 33 " stroke-dasharray="none" stroke="#323232" stroke-width="2" fill="none" opacity="1"></path><g id="SvgjsG1037" transform="matrix(1 0 0 1 10 0.25)" fill="#ffffff"><text id="SvgjsText1038" font-family="微软雅黑,黑体,Arial,宋体" fill="#000000" font-size="13" font-weight="bold" font-style="normal" text-anchor="middle" text-decoration="blink" x="105" y="15">&lt;&lt;interface&gt;&gt;</text><text id="SvgjsText1039" font-family="微软雅黑,黑体,Arial,宋体" fill="#000000" font-size="13" font-weight="bold" font-style="normal" text-anchor="middle" text-decoration="blink" x="105" y="31.25">iterator</text></g></g></g></g></svg>