<svg id="drawing" xmlns="http://www.w3.org/2000/svg" version="1.1" xmlns:xlink="http://www.w3.org/1999/xlink" width="620" height="380" viewBox="203 176 620 380"><defs id="SvgjsDefs1001"><marker id="SvgjsMarker1038" markerWidth="16.23606797749979" markerHeight="10.550836550532098" refX="-1" refY="3.8990363547948754" viewBox="-1 -1.3763819204711738 16.23606797749979 10.550836550532098" orient="auto" markerUnits="userSpaceOnUse"><path id="SvgjsPath1039" d="M12 3.899036407470703L0 7.798072814941406V0Z " stroke="#323232" stroke-width="2" fill="#323232" transform="matrix(1,0,0,1,0,0)"></path></marker></defs><g id="SvgjsG1007"><path id="SvgjsPath1008" d="M203 176H823V556H203V176Z " fill-opacity="0" fill="none"></path><g id="SvgjsG1009"><g id="SvgjsG1010" transform="translate(223 196)" opacity="1"><path id="SvgjsPath1011" d="M0 4Q0 0 4 0L226 0Q230 0 230 4L230 109Q230 113 226 113L4 113Q0 113 0 109Z " stroke-dasharray="none" stroke="#323232" stroke-width="2" fill="#ffffff" opacity="1"></path><path id="SvgjsPath1012" d="M0 30L230 30M0 71L230 71 " stroke-dasharray="none" stroke="#323232" stroke-width="2" fill="none" opacity="1"></path><g id="SvgjsG1013" transform="matrix(1 0 0 1 10 6.875)" fill="#ffffff"><text id="SvgjsText1014" font-family="微软雅黑,黑体,Arial,宋体" fill="#000000" font-size="13" font-weight="bold" font-style="normal" text-anchor="middle" text-decoration="blink" x="105" y="15">UsersCollection</text></g><g id="SvgjsG1015" transform="matrix(1 0 0 1 10 76.25)" fill="#ffffff"><text id="SvgjsText1016" font-family="微软雅黑,黑体,Arial,宋体" fill="#000000" font-size="13" font-weight="false" font-style="normal" text-anchor="start" text-decoration="blink" x="0" y="15">+__construct(currentuser:dao)</text><text id="SvgjsText1017" font-family="微软雅黑,黑体,Arial,宋体" fill="#000000" font-size="13" font-weight="false" font-style="normal" text-anchor="start" text-decoration="blink" x="0" y="31.25">+getwithdata()</text></g></g><g id="SvgjsG1018" transform="translate(573 196)" opacity="1"><path id="SvgjsPath1019" d="M0 4Q0 0 4 0L226 0Q230 0 230 4L230 109Q230 113 226 113L4 113Q0 113 0 109Z " stroke-dasharray="none" stroke="#323232" stroke-width="2" fill="#ffffff" opacity="1"></path><path id="SvgjsPath1020" d="M0 30L230 30M0 73L230 73 " stroke-dasharray="none" stroke="#323232" stroke-width="2" fill="none" opacity="1"></path><g id="SvgjsG1021" transform="matrix(1 0 0 1 10 6.875)" fill="#ffffff"><text id="SvgjsText1022" font-family="微软雅黑,黑体,Arial,宋体" fill="#000000" font-size="13" font-weight="bold" font-style="normal" text-anchor="middle" text-decoration="blink" x="105" y="15">daocollection</text></g></g><g id="SvgjsG1023" transform="translate(223 448)" opacity="1"><path id="SvgjsPath1024" d="M0 4Q0 0 4 0L226 0Q230 0 230 4L230 84Q230 88 226 88L4 88Q0 88 0 84Z " stroke-dasharray="none" stroke="#323232" stroke-width="2" fill="#ffffff" opacity="1"></path><path id="SvgjsPath1025" d="M0 33L230 33 " stroke-dasharray="none" stroke="#323232" stroke-width="2" fill="none" opacity="1"></path><g id="SvgjsG1026" transform="matrix(1 0 0 1 10 0.25)" fill="#ffffff"><text id="SvgjsText1027" font-family="微软雅黑,黑体,Arial,宋体" fill="#000000" font-size="13" font-weight="bold" font-style="normal" text-anchor="middle" text-decoration="blink" x="105" y="15">&lt;&lt;interface&gt;&gt;</text><text id="SvgjsText1028" font-family="微软雅黑,黑体,Arial,宋体" fill="#000000" font-size="13" font-weight="bold" font-style="normal" text-anchor="middle" text-decoration="blink" x="105" y="31.25">daocollection</text></g><g id="SvgjsG1029" transform="matrix(1 0 0 1 10 50.375)" fill="#ffffff"><text id="SvgjsText1030" font-family="微软雅黑,黑体,Arial,宋体" fill="#000000" font-size="13" font-weight="false" font-style="normal" text-anchor="start" text-decoration="blink" x="0" y="15">+__construct(owner:dao)</text></g></g><g id="SvgjsG1031"><path id="SvgjsPath1032" d="M453 234L513 234L513 234L573 234 " stroke-dasharray="none" stroke="#323232" stroke-width="2" fill="none"></path><g id="SvgjsG1033" transform="matrix(1 0 0 1 513 225.875)" fill="#ffffff"><path id="SvgjsPath1034" d="M0 0H0V0H0V0Z " fill="#ffffff" transform="translate(0 0)"></path><text id="SvgjsText1035" font-family="Microsoft Yahei,宋体" fill="#000000" font-size="13" font-weight="normal" font-style="normal" text-anchor="middle" text-decoration="blink" x="0" y="0"></text></g></g><g id="SvgjsG1036"><path id="SvgjsPath1037" d="M338 309C338 364.6000061035156 338 392.3999938964844 338 432.7639465332031 " stroke-dasharray="none" stroke="#323232" stroke-width="2" fill="none" marker-end="url(#SvgjsMarker1038)"></path><g id="SvgjsG1040" transform="matrix(1 0 0 1 338 368.47049150281254)" fill="#ffffff"><path id="SvgjsPath1041" d="M0 0H0V0H0V0Z " fill="#ffffff" transform="translate(0 0)"></path><text id="SvgjsText1042" font-family="Microsoft Yahei,宋体" fill="#000000" font-size="13" font-weight="normal" font-style="normal" text-anchor="middle" text-decoration="blink" x="0" y="0"></text></g></g><g id="SvgjsG1043" transform="translate(449 196)" opacity="1"><g id="SvgjsG1044" transform="matrix(1 0 0 1 0 12.375)" fill="#ffffff"><text id="SvgjsText1045" font-family="微软雅黑,黑体,Arial,宋体" fill="#000000" font-size="13" font-weight="normal" font-style="normal" text-anchor="middle" text-decoration="blink" x="16.5" y="15">1</text></g></g><g id="SvgjsG1046" transform="translate(532 201)" opacity="1"><g id="SvgjsG1047" transform="matrix(1 0 0 1 0 7.375)" fill="#ffffff"><text id="SvgjsText1048" font-family="微软雅黑,黑体,Arial,宋体" fill="#000000" font-size="13" font-weight="normal" font-style="normal" text-anchor="middle" text-decoration="blink" x="24.5" y="15">1</text></g></g></g></g></svg>