<svg id="drawing" xmlns="http://www.w3.org/2000/svg" version="1.1" xmlns:xlink="http://www.w3.org/1999/xlink" width="713" height="152" viewBox="172 216 713 152"><defs id="SvgjsDefs1001"><marker id="SvgjsMarker1027" markerWidth="16.23606797749979" markerHeight="10.550836550532098" refX="-1" refY="3.8990363547948754" viewBox="-1 -1.3763819204711738 16.23606797749979 10.550836550532098" orient="auto" markerUnits="userSpaceOnUse"><path id="SvgjsPath1028" d="M12 3.899036407470703L0 7.798072814941406V0Z " stroke="#323232" stroke-width="2" fill="#323232" transform="matrix(1,0,0,1,0,0)"></path></marker></defs><g id="SvgjsG1007"><path id="SvgjsPath1008" d="M172 216H885V368H172V216Z " fill-opacity="0" fill="none"></path><g id="SvgjsG1009"><g id="SvgjsG1010" transform="translate(192 236)" opacity="1"><path id="SvgjsPath1011" d="M0 4Q0 0 4 0L226 0Q230 0 230 4L230 108Q230 112 226 112L4 112Q0 112 0 108Z " stroke-dasharray="none" stroke="#323232" stroke-width="2" fill="#ffffff" opacity="1"></path><path id="SvgjsPath1012" d="M0 30L230 30M0 71L230 71 " stroke-dasharray="none" stroke="#323232" stroke-width="2" fill="none" opacity="1"></path><g id="SvgjsG1013" transform="matrix(1 0 0 1 10 6.875)" fill="#ffffff"><text id="SvgjsText1014" font-family="微软雅黑,黑体,Arial,宋体" fill="#000000" font-size="13" font-weight="bold" font-style="normal" text-anchor="middle" text-decoration="blink" x="105" y="14">Controller</text></g><g id="SvgjsG1015" transform="matrix(1 0 0 1 10 75.75)" fill="#ffffff"><text id="SvgjsText1016" font-family="微软雅黑,黑体,Arial,宋体" fill="#000000" font-size="13" font-weight="false" font-style="normal" text-anchor="start" text-decoration="blink" x="0" y="14">+controller()</text><text id="SvgjsText1017" font-family="微软雅黑,黑体,Arial,宋体" fill="#000000" font-size="13" font-weight="false" font-style="normal" text-anchor="start" text-decoration="blink" x="0" y="30.25">+render():String</text></g></g><g id="SvgjsG1018" transform="translate(635 237)" opacity="1"><path id="SvgjsPath1019" d="M0 4Q0 0 4 0L226 0Q230 0 230 4L230 106Q230 110 226 110L4 110Q0 110 0 106Z " stroke-dasharray="none" stroke="#323232" stroke-width="2" fill="#ffffff" opacity="1"></path><path id="SvgjsPath1020" d="M0 30L230 30M0 71L230 71 " stroke-dasharray="none" stroke="#323232" stroke-width="2" fill="none" opacity="1"></path><g id="SvgjsG1021" transform="matrix(1 0 0 1 10 6.875)" fill="#ffffff"><text id="SvgjsText1022" font-family="微软雅黑,黑体,Arial,宋体" fill="#000000" font-size="13" font-weight="bold" font-style="normal" text-anchor="middle" text-decoration="blink" x="105" y="14">Module</text></g><g id="SvgjsG1023" transform="matrix(1 0 0 1 10 82.875)" fill="#ffffff"><text id="SvgjsText1024" font-family="微软雅黑,黑体,Arial,宋体" fill="#000000" font-size="13" font-weight="false" font-style="normal" text-anchor="start" text-decoration="blink" x="0" y="14">+action()</text></g></g><g id="SvgjsG1025"><path id="SvgjsPath1026" d="M635 292L531 292L531 292L442.2360534667969 292 " stroke-dasharray="none" stroke="#323232" stroke-width="2" fill="none" marker-end="url(#SvgjsMarker1027)"></path><g id="SvgjsG1029" transform="matrix(1 0 0 1 538.6180339887499 283.875)" fill="#ffffff"><path id="SvgjsPath1030" d="M0 0H0V0H0V0Z " fill="#ffffff" transform="translate(0 0)"></path><text id="SvgjsText1031" font-family="Microsoft Yahei,宋体" fill="#000000" font-size="13" font-weight="normal" font-style="normal" text-anchor="middle" text-decoration="blink" x="0" y="0"></text></g></g><g id="SvgjsG1032" transform="translate(441 250)" opacity="1"><g id="SvgjsG1033" transform="matrix(1 0 0 1 0 17.375)" fill="#ffffff"><text id="SvgjsText1034" font-family="微软雅黑,黑体,Arial,宋体" fill="#000000" font-size="13" font-weight="normal" font-style="normal" text-anchor="middle" text-decoration="blink" x="14.5" y="14">1</text></g></g><g id="SvgjsG1035" transform="translate(589 261)" opacity="1"><g id="SvgjsG1036" transform="matrix(1 0 0 1 0 6.375)" fill="#ffffff"><text id="SvgjsText1037" font-family="微软雅黑,黑体,Arial,宋体" fill="#000000" font-size="13" font-weight="normal" font-style="normal" text-anchor="middle" text-decoration="blink" x="20" y="14">1</text></g></g></g></g></svg>