<svg id="drawing" xmlns="http://www.w3.org/2000/svg" version="1.1" xmlns:xlink="http://www.w3.org/1999/xlink" width="270" height="216" viewBox="439 248 270 216"><defs id="SvgjsDefs1001"></defs><g id="SvgjsG1007"><path id="SvgjsPath1008" d="M439 248H709V464H439V248Z " fill-opacity="0" fill="none"></path><g id="SvgjsG1009"><g id="SvgjsG1010" transform="translate(459 268)" opacity="1"><path id="SvgjsPath1011" d="M0 4Q0 0 4 0L226 0Q230 0 230 4L230 172Q230 176 226 176L4 176Q0 176 0 172Z " stroke-dasharray="none" stroke="#323232" stroke-width="2" fill="#ffffff" opacity="1"></path><path id="SvgjsPath1012" d="M0 30L230 30M0 71L230 71 " stroke-dasharray="none" stroke="#323232" stroke-width="2" fill="none" opacity="1"></path><g id="SvgjsG1013" transform="matrix(1 0 0 1 10 6.875)" fill="#ffffff"><text id="SvgjsText1014" font-family="微软雅黑,黑体,Arial,宋体" fill="#000000" font-size="13" font-weight="bold" font-style="normal" text-anchor="middle" text-decoration="blink" x="105" y="14">View</text></g><g id="SvgjsG1015" transform="matrix(1 0 0 1 10 75.25)" fill="#ffffff"><text id="SvgjsText1016" font-family="微软雅黑,黑体,Arial,宋体" fill="#000000" font-size="13" font-weight="false" font-style="normal" text-anchor="start" text-decoration="blink" x="0" y="14">+start()</text><text id="SvgjsText1017" font-family="微软雅黑,黑体,Arial,宋体" fill="#000000" font-size="13" font-weight="false" font-style="normal" text-anchor="start" text-decoration="blink" x="0" y="30.25">+end():String</text><text id="SvgjsText1018" font-family="微软雅黑,黑体,Arial,宋体" fill="#000000" font-size="13" font-weight="false" font-style="normal" text-anchor="start" text-decoration="blink" x="0" y="46.5">+show(type:String param:Array):</text><text id="SvgjsText1019" font-family="微软雅黑,黑体,Arial,宋体" fill="#000000" font-size="13" font-weight="false" font-style="normal" text-anchor="start" text-decoration="blink" x="0" y="62.75">String</text><text id="SvgjsText1020" font-family="微软雅黑,黑体,Arial,宋体" fill="#000000" font-size="13" font-weight="false" font-style="normal" text-anchor="start" text-decoration="blink" x="0" y="79">+findViewtype()</text><text id="SvgjsText1021" font-family="微软雅黑,黑体,Arial,宋体" fill="#000000" font-size="13" font-weight="false" font-style="normal" text-anchor="start" text-decoration="blink" x="0" y="81.25"></text></g></g></g></g></svg>