<svg id="drawing" xmlns="http://www.w3.org/2000/svg" version="1.1" xmlns:xlink="http://www.w3.org/1999/xlink" width="596" height="420" viewBox="156 83 596 420"><defs id="SvgjsDefs1001"><marker id="SvgjsMarker1029" markerWidth="16.23606797749979" markerHeight="10.550836550532098" refX="-1" refY="3.8990363547948754" viewBox="-1 -1.3763819204711738 16.23606797749979 10.550836550532098" orient="auto" markerUnits="userSpaceOnUse"><path id="SvgjsPath1030" d="M12 3.899036407470703L0 7.798072814941406V0Z " stroke="#323232" stroke-width="2" fill="#323232" transform="matrix(1,0,0,1,0,0)"></path></marker></defs><g id="SvgjsG1007"><path id="SvgjsPath1008" d="M156 83H752V503H156V83Z " fill-opacity="0" fill="none"></path><g id="SvgjsG1009"><g id="SvgjsG1010" transform="translate(176 103)" opacity="1"><path id="SvgjsPath1011" d="M0 4Q0 0 4 0L226 0Q230 0 230 4L230 106Q230 110 226 110L4 110Q0 110 0 106Z " stroke-dasharray="none" stroke="#323232" stroke-width="2" fill="#ffffff" opacity="1"></path><path id="SvgjsPath1012" d="M0 30L230 30M0 71L230 71 " stroke-dasharray="none" stroke="#323232" stroke-width="2" fill="none" opacity="1"></path><g id="SvgjsG1013" transform="matrix(1 0 0 1 10 6.875)" fill="#ffffff"><text id="SvgjsText1014" font-family="微软雅黑,黑体,Arial,宋体" fill="#000000" font-size="13" font-weight="bold" font-style="normal" text-anchor="middle" text-decoration="blink" x="105" y="14">IndexModule</text></g><g id="SvgjsG1015" transform="matrix(1 0 0 1 10 82.875)" fill="#ffffff"><text id="SvgjsText1016" font-family="微软雅黑,黑体,Arial,宋体" fill="#000000" font-size="13" font-weight="false" font-style="normal" text-anchor="start" text-decoration="blink" x="0" y="14">+default()</text></g></g><g id="SvgjsG1017" transform="translate(502 103)" opacity="1"><path id="SvgjsPath1018" d="M0 4Q0 0 4 0L226 0Q230 0 230 4L230 106Q230 110 226 110L4 110Q0 110 0 106Z " stroke-dasharray="none" stroke="#323232" stroke-width="2" fill="#ffffff" opacity="1"></path><path id="SvgjsPath1019" d="M0 30L230 30M0 71L230 71 " stroke-dasharray="none" stroke="#323232" stroke-width="2" fill="none" opacity="1"></path><g id="SvgjsG1020" transform="matrix(1 0 0 1 10 6.875)" fill="#ffffff"><text id="SvgjsText1021" font-family="微软雅黑,黑体,Arial,宋体" fill="#000000" font-size="13" font-weight="bold" font-style="normal" text-anchor="middle" text-decoration="blink" x="105" y="14">Module</text></g></g><g id="SvgjsG1022" transform="translate(184 373)" opacity="1"><path id="SvgjsPath1023" d="M0 4Q0 0 4 0L226 0Q230 0 230 4L230 106Q230 110 226 110L4 110Q0 110 0 106Z " stroke-dasharray="none" stroke="#323232" stroke-width="2" fill="#ffffff" opacity="1"></path><path id="SvgjsPath1024" d="M0 30L230 30M0 71L230 71 " stroke-dasharray="none" stroke="#323232" stroke-width="2" fill="none" opacity="1"></path><g id="SvgjsG1025" transform="matrix(1 0 0 1 10 6.875)" fill="#ffffff"><text id="SvgjsText1026" font-family="微软雅黑,黑体,Arial,宋体" fill="#000000" font-size="13" font-weight="bold" font-style="normal" text-anchor="middle" text-decoration="blink" x="105" y="14">contractscollection</text></g></g><g id="SvgjsG1027"><path id="SvgjsPath1028" d="M318 373L318 293L318 293L318 228.23606872558594 " stroke-dasharray="none" stroke="#323232" stroke-width="2" fill="none" marker-end="url(#SvgjsMarker1029)"></path><g id="SvgjsG1031" transform="matrix(1 0 0 1 318 292.4930339887499)" fill="#ffffff"><path id="SvgjsPath1032" d="M0 0H0V0H0V0Z " fill="#ffffff" transform="translate(0 0)"></path><text id="SvgjsText1033" font-family="Microsoft Yahei,宋体" fill="#000000" font-size="13" font-weight="normal" font-style="normal" text-anchor="middle" text-decoration="blink" x="0" y="0"></text></g></g><g id="SvgjsG1034"><path id="SvgjsPath1035" d="M406 158L454 158L454 158L502 158 " stroke-dasharray="none" stroke="#323232" stroke-width="2" fill="none"></path><g id="SvgjsG1036" transform="matrix(1 0 0 1 454 149.875)" fill="#ffffff"><path id="SvgjsPath1037" d="M0 0H0V0H0V0Z " fill="#ffffff" transform="translate(0 0)"></path><text id="SvgjsText1038" font-family="Microsoft Yahei,宋体" fill="#000000" font-size="13" font-weight="normal" font-style="normal" text-anchor="middle" text-decoration="blink" x="0" y="0"></text></g></g><g id="SvgjsG1039" transform="translate(406 136)" opacity="1"><g id="SvgjsG1040" transform="matrix(1 0 0 1 0 1.875)" fill="#ffffff"><text id="SvgjsText1041" font-family="微软雅黑,黑体,Arial,宋体" fill="#000000" font-size="13" font-weight="normal" font-style="normal" text-anchor="middle" text-decoration="blink" x="11.5" y="14">1</text></g></g><g id="SvgjsG1042" transform="translate(458 128)" opacity="1"><g id="SvgjsG1043" transform="matrix(1 0 0 1 0 9.875)" fill="#ffffff"><text id="SvgjsText1044" font-family="微软雅黑,黑体,Arial,宋体" fill="#000000" font-size="13" font-weight="normal" font-style="normal" text-anchor="middle" text-decoration="blink" x="32" y="14">1</text></g></g></g></g></svg>