<svg id="drawing" xmlns="http://www.w3.org/2000/svg" version="1.1" xmlns:xlink="http://www.w3.org/1999/xlink" width="680" height="424" viewBox="175 128 680 424"><defs id="SvgjsDefs1001"><marker id="SvgjsMarker1045" markerWidth="16.23606797749979" markerHeight="10.550836550532098" refX="-1" refY="3.8990363547948754" viewBox="-1 -1.3763819204711738 16.23606797749979 10.550836550532098" orient="auto" markerUnits="userSpaceOnUse"><path id="SvgjsPath1046" d="M12 3.899036407470703L0 7.798072814941406V0Z " stroke="#323232" stroke-width="2" fill="#323232" transform="matrix(1,0,0,1,0,0)"></path></marker></defs><g id="SvgjsG1007"><path id="SvgjsPath1008" d="M175 128H855V552H175V128Z " fill-opacity="0" fill="none"></path><g id="SvgjsG1009"><g id="SvgjsG1010" transform="translate(207 148)" opacity="1"><path id="SvgjsPath1011" d="M0 4Q0 0 4 0L226 0Q230 0 230 4L230 108Q230 112 226 112L4 112Q0 112 0 108Z " stroke-dasharray="none" stroke="#323232" stroke-width="2" fill="#ffffff" opacity="1"></path><path id="SvgjsPath1012" d="M0 30L230 30M0 71L230 71 " stroke-dasharray="none" stroke="#323232" stroke-width="2" fill="none" opacity="1"></path><g id="SvgjsG1013" transform="matrix(1 0 0 1 10 6.875)" fill="#ffffff"><text id="SvgjsText1014" font-family="微软雅黑,黑体,Arial,宋体" fill="#000000" font-size="13" font-weight="bold" font-style="normal" text-anchor="middle" text-decoration="blink" x="105" y="14">LoginModule</text></g><g id="SvgjsG1015" transform="matrix(1 0 0 1 10 75.75)" fill="#ffffff"><text id="SvgjsText1016" font-family="微软雅黑,黑体,Arial,宋体" fill="#000000" font-size="13" font-weight="false" font-style="normal" text-anchor="start" text-decoration="blink" x="0" y="14">+showLogin():String</text><text id="SvgjsText1017" font-family="微软雅黑,黑体,Arial,宋体" fill="#000000" font-size="13" font-weight="false" font-style="normal" text-anchor="start" text-decoration="blink" x="0" y="30.25">+process()</text></g></g><g id="SvgjsG1018" transform="translate(605 149)" opacity="1"><path id="SvgjsPath1019" d="M0 4Q0 0 4 0L226 0Q230 0 230 4L230 106Q230 110 226 110L4 110Q0 110 0 106Z " stroke-dasharray="none" stroke="#323232" stroke-width="2" fill="#ffffff" opacity="1"></path><path id="SvgjsPath1020" d="M0 30L230 30M0 71L230 71 " stroke-dasharray="none" stroke="#323232" stroke-width="2" fill="none" opacity="1"></path><g id="SvgjsG1021" transform="matrix(1 0 0 1 10 6.875)" fill="#ffffff"><text id="SvgjsText1022" font-family="微软雅黑,黑体,Arial,宋体" fill="#000000" font-size="13" font-weight="bold" font-style="normal" text-anchor="middle" text-decoration="blink" x="105" y="14">Module</text></g></g><g id="SvgjsG1023" transform="translate(195 417)" opacity="1"><path id="SvgjsPath1024" d="M0 4Q0 0 4 0L226 0Q230 0 230 4L230 106Q230 110 226 110L4 110Q0 110 0 106Z " stroke-dasharray="none" stroke="#323232" stroke-width="2" fill="#ffffff" opacity="1"></path><path id="SvgjsPath1025" d="M0 30L230 30M0 71L230 71 " stroke-dasharray="none" stroke="#323232" stroke-width="2" fill="none" opacity="1"></path><g id="SvgjsG1026" transform="matrix(1 0 0 1 10 6.875)" fill="#ffffff"><text id="SvgjsText1027" font-family="微软雅黑,黑体,Arial,宋体" fill="#000000" font-size="13" font-weight="bold" font-style="normal" text-anchor="middle" text-decoration="blink" x="105" y="14">User</text></g></g><g id="SvgjsG1028" transform="translate(602 419)" opacity="1"><path id="SvgjsPath1029" d="M0 4Q0 0 4 0L226 0Q230 0 230 4L230 109Q230 113 226 113L4 113Q0 113 0 109Z " stroke-dasharray="none" stroke="#323232" stroke-width="2" fill="#ffffff" opacity="1"></path><path id="SvgjsPath1030" d="M0 30L230 30M0 73L230 73 " stroke-dasharray="none" stroke="#323232" stroke-width="2" fill="none" opacity="1"></path><g id="SvgjsG1031" transform="matrix(1 0 0 1 10 6.875)" fill="#ffffff"><text id="SvgjsText1032" font-family="微软雅黑,黑体,Arial,宋体" fill="#000000" font-size="13" font-weight="bold" font-style="normal" text-anchor="middle" text-decoration="blink" x="105" y="14">Dao</text></g></g><g id="SvgjsG1033"><path id="SvgjsPath1034" d="M437 223L521 223L521 223L605 223 " stroke-dasharray="none" stroke="#323232" stroke-width="2" fill="none"></path><g id="SvgjsG1035" transform="matrix(1 0 0 1 521 214.875)" fill="#ffffff"><path id="SvgjsPath1036" d="M0 0H0V0H0V0Z " fill="#ffffff" transform="translate(0 0)"></path><text id="SvgjsText1037" font-family="Microsoft Yahei,宋体" fill="#000000" font-size="13" font-weight="normal" font-style="normal" text-anchor="middle" text-decoration="blink" x="0" y="0"></text></g></g><g id="SvgjsG1038"><path id="SvgjsPath1039" d="M425 492L512 492L512 492L599 492 " stroke-dasharray="none" stroke="#323232" stroke-width="2" fill="none"></path><g id="SvgjsG1040" transform="matrix(1 0 0 1 512 483.875)" fill="#ffffff"><path id="SvgjsPath1041" d="M0 0H0V0H0V0Z " fill="#ffffff" transform="translate(0 0)"></path><text id="SvgjsText1042" font-family="Microsoft Yahei,宋体" fill="#000000" font-size="13" font-weight="normal" font-style="normal" text-anchor="middle" text-decoration="blink" x="0" y="0"></text></g></g><g id="SvgjsG1043"><path id="SvgjsPath1044" d="M310 417L310 338.5L310 338.5L310 275.2360534667969 " stroke-dasharray="none" stroke="#323232" stroke-width="2" fill="none" marker-end="url(#SvgjsMarker1045)"></path><g id="SvgjsG1047" transform="matrix(1 0 0 1 310 337.99303398874986)" fill="#ffffff"><path id="SvgjsPath1048" d="M0 0H0V0H0V0Z " fill="#ffffff" transform="translate(0 0)"></path><text id="SvgjsText1049" font-family="Microsoft Yahei,宋体" fill="#000000" font-size="13" font-weight="normal" font-style="normal" text-anchor="middle" text-decoration="blink" x="0" y="0"></text></g></g><g id="SvgjsG1050" transform="translate(445 188)" opacity="1"><g id="SvgjsG1051" transform="matrix(1 0 0 1 0 5.375)" fill="#ffffff"><text id="SvgjsText1052" font-family="微软雅黑,黑体,Arial,宋体" fill="#000000" font-size="13" font-weight="normal" font-style="normal" text-anchor="middle" text-decoration="blink" x="12.5" y="14">1</text></g></g><g id="SvgjsG1053" transform="translate(569 187.5)" opacity="1"><g id="SvgjsG1054" transform="matrix(1 0 0 1 0 5.875)" fill="#ffffff"><text id="SvgjsText1055" font-family="微软雅黑,黑体,Arial,宋体" fill="#000000" font-size="13" font-weight="normal" font-style="normal" text-anchor="middle" text-decoration="blink" x="18" y="14">1</text></g></g><g id="SvgjsG1056" transform="translate(428 464)" opacity="1"><g id="SvgjsG1057" transform="matrix(1 0 0 1 0 3.375)" fill="#ffffff"><text id="SvgjsText1058" font-family="微软雅黑,黑体,Arial,宋体" fill="#000000" font-size="13" font-weight="normal" font-style="normal" text-anchor="middle" text-decoration="blink" x="15.5" y="14">1</text></g></g><g id="SvgjsG1059" transform="translate(560 456)" opacity="1"><g id="SvgjsG1060" transform="matrix(1 0 0 1 0 4.875)" fill="#ffffff"><text id="SvgjsText1061" font-family="微软雅黑,黑体,Arial,宋体" fill="#000000" font-size="13" font-weight="normal" font-style="normal" text-anchor="middle" text-decoration="blink" x="18.5" y="14">1</text></g></g></g></g></svg>