<svg id="drawing" xmlns="http://www.w3.org/2000/svg" version="1.1" xmlns:xlink="http://www.w3.org/1999/xlink" width="688" height="232" viewBox="107 200 688 232"><defs id="SvgjsDefs1001"><marker id="SvgjsMarker1038" markerWidth="16.23606797749979" markerHeight="10.550836550532098" refX="-1" refY="3.8990363547948754" viewBox="-1 -1.3763819204711738 16.23606797749979 10.550836550532098" orient="auto" markerUnits="userSpaceOnUse"><path id="SvgjsPath1039" d="M12 3.899036407470703L0 7.798072814941406V0Z " stroke="#323232" stroke-width="2" fill="#323232" transform="matrix(1,0,0,1,0,0)"></path></marker></defs><g id="SvgjsG1007"><path id="SvgjsPath1008" d="M107 200H795V432H107V200Z " fill-opacity="0" fill="none"></path><g id="SvgjsG1009"><g id="SvgjsG1010" transform="translate(127 224)" opacity="1"><path id="SvgjsPath1011" d="M0 4Q0 0 4 0L226 0Q230 0 230 4L230 159Q230 163 226 163L4 163Q0 163 0 159Z " stroke-dasharray="none" stroke="#323232" stroke-width="2" fill="#ffffff" opacity="1"></path><path id="SvgjsPath1012" d="M0 30L230 30M0 116L230 116 " stroke-dasharray="none" stroke="#323232" stroke-width="2" fill="none" opacity="1"></path><g id="SvgjsG1013" transform="matrix(1 0 0 1 10 6.875)" fill="#ffffff"><text id="SvgjsText1014" font-family="微软雅黑,黑体,Arial,宋体" fill="#000000" font-size="13" font-weight="bold" font-style="normal" text-anchor="middle" text-decoration="blink" x="105" y="14">User</text></g><g id="SvgjsG1015" transform="matrix(1 0 0 1 10 32.375)" fill="#ffffff"><text id="SvgjsText1016" font-family="微软雅黑,黑体,Arial,宋体" fill="#000000" font-size="13" font-weight="false" font-style="normal" text-anchor="start" text-decoration="blink" x="0" y="14">#table:String</text><text id="SvgjsText1017" font-family="微软雅黑,黑体,Arial,宋体" fill="#000000" font-size="13" font-weight="false" font-style="normal" text-anchor="start" text-decoration="blink" x="0" y="30.25">+Id:integer</text><text id="SvgjsText1018" font-family="微软雅黑,黑体,Arial,宋体" fill="#000000" font-size="13" font-weight="false" font-style="normal" text-anchor="start" text-decoration="blink" x="0" y="46.5">+username:String</text><text id="SvgjsText1019" font-family="微软雅黑,黑体,Arial,宋体" fill="#000000" font-size="13" font-weight="false" font-style="normal" text-anchor="start" text-decoration="blink" x="0" y="62.75">+password:String</text><text id="SvgjsText1020" font-family="微软雅黑,黑体,Arial,宋体" fill="#000000" font-size="13" font-weight="false" font-style="normal" text-anchor="start" text-decoration="blink" x="0" y="79">+admin:integer</text></g></g><g id="SvgjsG1021" transform="translate(545 220)" opacity="1"><path id="SvgjsPath1022" d="M0 4Q0 0 4 0L226 0Q230 0 230 4L230 188Q230 192 226 192L4 192Q0 192 0 188Z " stroke-dasharray="none" stroke="#323232" stroke-width="2" fill="#ffffff" opacity="1"></path><path id="SvgjsPath1023" d="M0 30L230 30M0 71L230 71 " stroke-dasharray="none" stroke="#323232" stroke-width="2" fill="none" opacity="1"></path><g id="SvgjsG1024" transform="matrix(1 0 0 1 10 6.875)" fill="#ffffff"><text id="SvgjsText1025" font-family="微软雅黑,黑体,Arial,宋体" fill="#000000" font-size="13" font-weight="bold" font-style="normal" text-anchor="middle" text-decoration="blink" x="105" y="14">Dao</text></g><g id="SvgjsG1026" transform="matrix(1 0 0 1 10 39.875)" fill="#ffffff"><text id="SvgjsText1027" font-family="微软雅黑,黑体,Arial,宋体" fill="#000000" font-size="13" font-weight="false" font-style="normal" text-anchor="start" text-decoration="blink" x="0" y="14">#values:Array</text></g><g id="SvgjsG1028" transform="matrix(1 0 0 1 10 75.125)" fill="#ffffff"><text id="SvgjsText1029" font-family="微软雅黑,黑体,Arial,宋体" fill="#000000" font-size="13" font-weight="false" font-style="normal" text-anchor="start" text-decoration="blink" x="0" y="14">+construct(qualifier:String)</text><text id="SvgjsText1030" font-family="微软雅黑,黑体,Arial,宋体" fill="#000000" font-size="13" font-weight="false" font-style="normal" text-anchor="start" text-decoration="blink" x="0" y="30.25">+__set(name:String value:Mixed)</text><text id="SvgjsText1031" font-family="微软雅黑,黑体,Arial,宋体" fill="#000000" font-size="13" font-weight="false" font-style="normal" text-anchor="start" text-decoration="blink" x="0" y="46.5">+__get(name:String):Mixed</text><text id="SvgjsText1032" font-family="微软雅黑,黑体,Arial,宋体" fill="#000000" font-size="13" font-weight="false" font-style="normal" text-anchor="start" text-decoration="blink" x="0" y="62.75">#polulate(qualifier:Array)</text><text id="SvgjsText1033" font-family="微软雅黑,黑体,Arial,宋体" fill="#000000" font-size="13" font-weight="false" font-style="normal" text-anchor="start" text-decoration="blink" x="0" y="79">+save()</text><text id="SvgjsText1034" font-family="微软雅黑,黑体,Arial,宋体" fill="#000000" font-size="13" font-weight="false" font-style="normal" text-anchor="start" text-decoration="blink" x="0" y="95.25">#create()</text><text id="SvgjsText1035" font-family="微软雅黑,黑体,Arial,宋体" fill="#000000" font-size="13" font-weight="false" font-style="normal" text-anchor="start" text-decoration="blink" x="0" y="111.5">#update()</text></g></g><g id="SvgjsG1036"><path id="SvgjsPath1037" d="M357 285L451 285L451 285L529.763916015625 285 " stroke-dasharray="none" stroke="#323232" stroke-width="2" fill="none" marker-end="url(#SvgjsMarker1038)"></path><g id="SvgjsG1040" transform="matrix(1 0 0 1 443.3819660112501 276.875)" fill="#ffffff"><path id="SvgjsPath1041" d="M0 0H0V0H0V0Z " fill="#ffffff" transform="translate(0 0)"></path><text id="SvgjsText1042" font-family="Microsoft Yahei,宋体" fill="#000000" font-size="13" font-weight="normal" font-style="normal" text-anchor="middle" text-decoration="blink" x="0" y="0"></text></g></g><g id="SvgjsG1043" transform="translate(352 250)" opacity="1"><g id="SvgjsG1044" transform="matrix(1 0 0 1 0 10.375)" fill="#ffffff"><text id="SvgjsText1045" font-family="微软雅黑,黑体,Arial,宋体" fill="#000000" font-size="13" font-weight="normal" font-style="normal" text-anchor="middle" text-decoration="blink" x="20.5" y="14">1</text></g></g><g id="SvgjsG1046" transform="translate(472 251)" opacity="1"><g id="SvgjsG1047" transform="matrix(1 0 0 1 0 9.375)" fill="#ffffff"><text id="SvgjsText1048" font-family="微软雅黑,黑体,Arial,宋体" fill="#000000" font-size="13" font-weight="normal" font-style="normal" text-anchor="middle" text-decoration="blink" x="58" y="14">1</text></g></g></g></g></svg>