<svg id="drawing" xmlns="http://www.w3.org/2000/svg" version="1.1" xmlns:xlink="http://www.w3.org/1999/xlink" width="708" height="491" viewBox="183 130 708 491"><defs id="SvgjsDefs1001"><marker id="SvgjsMarker1048" markerWidth="16.23606797749979" markerHeight="10.550836550532098" refX="-1" refY="3.8990363547948754" viewBox="-1 -1.3763819204711738 16.23606797749979 10.550836550532098" orient="auto" markerUnits="userSpaceOnUse"><path id="SvgjsPath1049" d="M12 3.899036407470703L0 7.798072814941406V0Z " stroke="#323232" stroke-width="2" fill="#323232" transform="matrix(1,0,0,1,0,0)"></path></marker><marker id="SvgjsMarker1055" markerWidth="16.23606797749979" markerHeight="10.550836550532098" refX="-1" refY="3.8990363547948754" viewBox="-1 -1.3763819204711738 16.23606797749979 10.550836550532098" orient="auto" markerUnits="userSpaceOnUse"><path id="SvgjsPath1056" d="M12 3.899036407470703L0 7.798072814941406V0Z " stroke="#323232" stroke-width="2" fill="#323232" transform="matrix(1,0,0,1,0,0)"></path></marker></defs><g id="SvgjsG1007"><path id="SvgjsPath1008" d="M183 130H891V621H183V130Z " fill-opacity="0" fill="none"></path><g id="SvgjsG1009"><g id="SvgjsG1010" transform="translate(203 153)" opacity="1"><path id="SvgjsPath1011" d="M0 4Q0 0 4 0L226 0Q230 0 230 4L230 172Q230 176 226 176L4 176Q0 176 0 172Z " stroke-dasharray="none" stroke="#323232" stroke-width="2" fill="#ffffff" opacity="1"></path><path id="SvgjsPath1012" d="M0 30L230 30M0 71L230 71 " stroke-dasharray="none" stroke="#323232" stroke-width="2" fill="none" opacity="1"></path><g id="SvgjsG1013" transform="matrix(1 0 0 1 10 6.875)" fill="#ffffff"><text id="SvgjsText1014" font-family="微软雅黑,黑体,Arial,宋体" fill="#000000" font-size="13" font-weight="bold" font-style="normal" text-anchor="middle" text-decoration="blink" x="105" y="14">db</text></g><g id="SvgjsG1015" transform="matrix(1 0 0 1 10 75.25)" fill="#ffffff"><text id="SvgjsText1016" font-family="微软雅黑,黑体,Arial,宋体" fill="#000000" font-size="13" font-weight="false" font-style="normal" text-anchor="start" text-decoration="blink" x="0" y="14">+factory(type:String):db</text><text id="SvgjsText1017" font-family="微软雅黑,黑体,Arial,宋体" fill="#000000" font-size="13" font-weight="false" font-style="normal" text-anchor="start" text-decoration="blink" x="0" y="30.25">+execute(query:String)</text><text id="SvgjsText1018" font-family="微软雅黑,黑体,Arial,宋体" fill="#000000" font-size="13" font-weight="false" font-style="normal" text-anchor="start" text-decoration="blink" x="0" y="46.5">+getArray(query:String):Array</text><text id="SvgjsText1019" font-family="微软雅黑,黑体,Arial,宋体" fill="#000000" font-size="13" font-weight="false" font-style="normal" text-anchor="start" text-decoration="blink" x="0" y="62.75">+insertGetID(query:String):intege</text><text id="SvgjsText1020" font-family="微软雅黑,黑体,Arial,宋体" fill="#000000" font-size="13" font-weight="false" font-style="normal" text-anchor="start" text-decoration="blink" x="0" y="79">r</text><text id="SvgjsText1021" font-family="微软雅黑,黑体,Arial,宋体" fill="#000000" font-size="13" font-weight="false" font-style="normal" text-anchor="start" text-decoration="blink" x="0" y="95.25">+clean(item:String):String</text></g></g><g id="SvgjsG1022" transform="translate(635 150)" opacity="1"><path id="SvgjsPath1023" d="M0 4Q0 0 4 0L226 0Q230 0 230 4L230 190Q230 194 226 194L4 194Q0 194 0 190Z " stroke-dasharray="none" stroke="#323232" stroke-width="2" fill="#ffffff" opacity="1"></path><path id="SvgjsPath1024" d="M0 30L230 30M0 73L230 73 " stroke-dasharray="none" stroke="#323232" stroke-width="2" fill="none" opacity="1"></path><g id="SvgjsG1025" transform="matrix(1 0 0 1 10 6.875)" fill="#ffffff"><text id="SvgjsText1026" font-family="微软雅黑,黑体,Arial,宋体" fill="#000000" font-size="13" font-weight="bold" font-style="normal" text-anchor="middle" text-decoration="blink" x="105" y="14">mysql</text></g><g id="SvgjsG1027" transform="matrix(1 0 0 1 10 32.75)" fill="#ffffff"><text id="SvgjsText1028" font-family="微软雅黑,黑体,Arial,宋体" fill="#000000" font-size="13" font-weight="false" font-style="normal" text-anchor="start" text-decoration="blink" x="0" y="14">#instance:db</text><text id="SvgjsText1029" font-family="微软雅黑,黑体,Arial,宋体" fill="#000000" font-size="13" font-weight="false" font-style="normal" text-anchor="start" text-decoration="blink" x="0" y="30.25">#link</text></g><g id="SvgjsG1030" transform="matrix(1 0 0 1 10 77.125)" fill="#ffffff"><text id="SvgjsText1031" font-family="微软雅黑,黑体,Arial,宋体" fill="#000000" font-size="13" font-weight="false" font-style="normal" text-anchor="start" text-decoration="blink" x="0" y="14">+getinstance():mysql</text><text id="SvgjsText1032" font-family="微软雅黑,黑体,Arial,宋体" fill="#000000" font-size="13" font-weight="false" font-style="normal" text-anchor="start" text-decoration="blink" x="0" y="30.25">#__construct()</text><text id="SvgjsText1033" font-family="微软雅黑,黑体,Arial,宋体" fill="#000000" font-size="13" font-weight="false" font-style="normal" text-anchor="start" text-decoration="blink" x="0" y="46.5">+execute(query:String)</text><text id="SvgjsText1034" font-family="微软雅黑,黑体,Arial,宋体" fill="#000000" font-size="13" font-weight="false" font-style="normal" text-anchor="start" text-decoration="blink" x="0" y="62.75">+getArray(query:String):Array</text><text id="SvgjsText1035" font-family="微软雅黑,黑体,Arial,宋体" fill="#000000" font-size="13" font-weight="false" font-style="normal" text-anchor="start" text-decoration="blink" x="0" y="79">+insertGetID(query:String):Intege</text><text id="SvgjsText1036" font-family="微软雅黑,黑体,Arial,宋体" fill="#000000" font-size="13" font-weight="false" font-style="normal" text-anchor="start" text-decoration="blink" x="0" y="95.25">r</text><text id="SvgjsText1037" font-family="微软雅黑,黑体,Arial,宋体" fill="#000000" font-size="13" font-weight="false" font-style="normal" text-anchor="start" text-decoration="blink" x="0" y="111.5">+clean(item:String):String</text></g></g><g id="SvgjsG1038" transform="translate(641 514)" opacity="1"><path id="SvgjsPath1039" d="M0 4Q0 0 4 0L226 0Q230 0 230 4L230 83Q230 87 226 87L4 87Q0 87 0 83Z " stroke-dasharray="none" stroke="#323232" stroke-width="2" fill="#ffffff" opacity="1"></path><path id="SvgjsPath1040" d="M0 32L230 32 " stroke-dasharray="none" stroke="#323232" stroke-width="2" fill="none" opacity="1"></path><g id="SvgjsG1041" transform="matrix(1 0 0 1 10 -0.25)" fill="#ffffff"><text id="SvgjsText1042" font-family="微软雅黑,黑体,Arial,宋体" fill="#000000" font-size="13" font-weight="bold" font-style="normal" text-anchor="middle" text-decoration="blink" x="105" y="14">&lt;&lt;interface&gt;&gt;</text><text id="SvgjsText1043" font-family="微软雅黑,黑体,Arial,宋体" fill="#000000" font-size="13" font-weight="bold" font-style="normal" text-anchor="middle" text-decoration="blink" x="105" y="30.25">singleton</text></g><g id="SvgjsG1044" transform="matrix(1 0 0 1 10 49.375)" fill="#ffffff"><text id="SvgjsText1045" font-family="微软雅黑,黑体,Arial,宋体" fill="#000000" font-size="13" font-weight="false" font-style="normal" text-anchor="start" text-decoration="blink" x="0" y="14">+getinstance()</text></g></g><g id="SvgjsG1046"><path id="SvgjsPath1047" d="M635 225L538 225L538 225L456.2360534667969 225 " stroke-dasharray="none" stroke="#323232" stroke-width="2" fill="none" marker-end="url(#SvgjsMarker1048)"></path><g id="SvgjsG1050" transform="matrix(1 0 0 1 545.6180339887499 216.875)" fill="#ffffff"><path id="SvgjsPath1051" d="M0 0H0V0H0V0Z " fill="#ffffff" transform="translate(0 0)"></path><text id="SvgjsText1052" font-family="Microsoft Yahei,宋体" fill="#000000" font-size="13" font-weight="normal" font-style="normal" text-anchor="middle" text-decoration="blink" x="0" y="0"></text></g></g><g id="SvgjsG1053"><path id="SvgjsPath1054" d="M719 344L719 498.7639465332031 " stroke-dasharray="none" stroke="#323232" stroke-width="2" fill="none" marker-end="url(#SvgjsMarker1055)"></path><g id="SvgjsG1057" transform="matrix(1 0 0 1 719 413.25696601125014)" fill="#ffffff"><path id="SvgjsPath1058" d="M0 0H0V0H0V0Z " fill="#ffffff" transform="translate(0 0)"></path><text id="SvgjsText1059" font-family="Microsoft Yahei,宋体" fill="#000000" font-size="13" font-weight="normal" font-style="normal" text-anchor="middle" text-decoration="blink" x="0" y="0"></text></g></g><g id="SvgjsG1060" transform="translate(447 190)" opacity="1"><g id="SvgjsG1061" transform="matrix(1 0 0 1 0 5.375)" fill="#ffffff"><text id="SvgjsText1062" font-family="微软雅黑,黑体,Arial,宋体" fill="#000000" font-size="13" font-weight="normal" font-style="normal" text-anchor="middle" text-decoration="blink" x="10.5" y="14">1</text></g></g><g id="SvgjsG1063" transform="translate(586 189.5)" opacity="1"><g id="SvgjsG1064" transform="matrix(1 0 0 1 0 5.875)" fill="#ffffff"><text id="SvgjsText1065" font-family="微软雅黑,黑体,Arial,宋体" fill="#000000" font-size="13" font-weight="normal" font-style="normal" text-anchor="middle" text-decoration="blink" x="17" y="14">1</text></g></g></g></g></svg>