<svg id="drawing" xmlns="http://www.w3.org/2000/svg" version="1.1" xmlns:xlink="http://www.w3.org/1999/xlink" width="485" height="616" viewBox="257 110 485 616"><defs id="SvgjsDefs1001"><marker id="SvgjsMarker1041" markerWidth="16.23606797749979" markerHeight="10.550836550532098" refX="-1" refY="3.8990363547948754" viewBox="-1 -1.3763819204711738 16.23606797749979 10.550836550532098" orient="auto" markerUnits="userSpaceOnUse"><path id="SvgjsPath1042" d="M12 3.899036407470703L0 7.798072814941406V0Z " stroke="#323232" stroke-width="2" fill="#323232" transform="matrix(1,0,0,1,0,0)"></path></marker><marker id="SvgjsMarker1048" markerWidth="16.23606797749979" markerHeight="10.550836550532098" refX="-1" refY="3.8990363547948754" viewBox="-1 -1.3763819204711738 16.23606797749979 10.550836550532098" orient="auto" markerUnits="userSpaceOnUse"><path id="SvgjsPath1049" d="M12 3.899036407470703L0 7.798072814941406V0Z " stroke="#323232" stroke-width="2" fill="#323232" transform="matrix(1,0,0,1,0,0)"></path></marker></defs><g id="SvgjsG1007"><path id="SvgjsPath1008" d="M257 110H742V726H257V110Z " fill-opacity="0" fill="none"></path><g id="SvgjsG1009"><g id="SvgjsG1010" transform="translate(277 130)" opacity="1"><path id="SvgjsPath1011" d="M0 4Q0 0 4 0L441 0Q445 0 445 4L445 171Q445 175 441 175L4 175Q0 175 0 171Z " stroke-dasharray="none" stroke="#323232" stroke-width="2" fill="#ffffff" opacity="1"></path><path id="SvgjsPath1012" d="M0 30L445 30M0 116L445 116 " stroke-dasharray="none" stroke="#323232" stroke-width="2" fill="none" opacity="1"></path><g id="SvgjsG1013" transform="matrix(1 0 0 1 10 6.875)" fill="#ffffff"><text id="SvgjsText1014" font-family="微软雅黑,黑体,Arial,宋体" fill="#000000" font-size="13" font-weight="bold" font-style="normal" text-anchor="middle" text-decoration="blink" x="212.5" y="14">auth</text></g><g id="SvgjsG1015" transform="matrix(1 0 0 1 10 40.5)" fill="#ffffff"><text id="SvgjsText1016" font-family="微软雅黑,黑体,Arial,宋体" fill="#000000" font-size="13" font-weight="false" font-style="normal" text-anchor="start" text-decoration="blink" x="0" y="14">#factory()</text><text id="SvgjsText1017" font-family="微软雅黑,黑体,Arial,宋体" fill="#000000" font-size="13" font-weight="false" font-style="normal" text-anchor="start" text-decoration="blink" x="0" y="30.25">+isloggedin():Boolean</text><text id="SvgjsText1018" font-family="微软雅黑,黑体,Arial,宋体" fill="#000000" font-size="13" font-weight="false" font-style="normal" text-anchor="start" text-decoration="blink" x="0" y="46.5">+isadmin():Boolean</text><text id="SvgjsText1019" font-family="微软雅黑,黑体,Arial,宋体" fill="#000000" font-size="13" font-weight="false" font-style="normal" text-anchor="start" text-decoration="blink" x="0" y="62.75">+authenticatesingfactory(user:User,password:String):Boolean</text></g><g id="SvgjsG1020" transform="matrix(1 0 0 1 10 125.125)" fill="#ffffff"><text id="SvgjsText1021" font-family="微软雅黑,黑体,Arial,宋体" fill="#000000" font-size="13" font-weight="false" font-style="normal" text-anchor="start" text-decoration="blink" x="0" y="14">+ operation1(params):returnType</text><text id="SvgjsText1022" font-family="微软雅黑,黑体,Arial,宋体" fill="#000000" font-size="13" font-weight="false" font-style="normal" text-anchor="start" text-decoration="blink" x="0" y="30.25">- operation2(params)</text><text id="SvgjsText1023" font-family="微软雅黑,黑体,Arial,宋体" fill="#000000" font-size="13" font-weight="false" font-style="normal" text-anchor="start" text-decoration="blink" x="0" y="46.5">- operation3()</text></g></g><g id="SvgjsG1024" transform="translate(298 403)" opacity="1"><path id="SvgjsPath1025" d="M0 4Q0 0 4 0L383 0Q387 0 387 4L387 106Q387 110 383 110L4 110Q0 110 0 106Z " stroke-dasharray="none" stroke="#323232" stroke-width="2" fill="#ffffff" opacity="1"></path><path id="SvgjsPath1026" d="M0 30L387 30M0 71L387 71 " stroke-dasharray="none" stroke="#323232" stroke-width="2" fill="none" opacity="1"></path><g id="SvgjsG1027" transform="matrix(1 0 0 1 10 6.875)" fill="#ffffff"><text id="SvgjsText1028" font-family="微软雅黑,黑体,Arial,宋体" fill="#000000" font-size="13" font-weight="bold" font-style="normal" text-anchor="middle" text-decoration="blink" x="183.5" y="14">authstandard</text></g><g id="SvgjsG1029" transform="matrix(1 0 0 1 10 82.875)" fill="#ffffff"><text id="SvgjsText1030" font-family="微软雅黑,黑体,Arial,宋体" fill="#000000" font-size="13" font-weight="false" font-style="normal" text-anchor="start" text-decoration="blink" x="0" y="14">+authenticate(user:User,password:String):Boolean</text></g></g><g id="SvgjsG1031" transform="translate(314 614)" opacity="1"><path id="SvgjsPath1032" d="M0 4Q0 0 4 0L331 0Q335 0 335 4L335 88Q335 92 331 92L4 92Q0 92 0 88Z " stroke-dasharray="none" stroke="#323232" stroke-width="2" fill="#ffffff" opacity="1"></path><path id="SvgjsPath1033" d="M0 32L335 32 " stroke-dasharray="none" stroke="#323232" stroke-width="2" fill="none" opacity="1"></path><g id="SvgjsG1034" transform="matrix(1 0 0 1 10 -0.25)" fill="#ffffff"><text id="SvgjsText1035" font-family="微软雅黑,黑体,Arial,宋体" fill="#000000" font-size="13" font-weight="bold" font-style="normal" text-anchor="middle" text-decoration="blink" x="157.5" y="14">&lt;&lt;interface&gt;&gt;</text><text id="SvgjsText1036" font-family="微软雅黑,黑体,Arial,宋体" fill="#000000" font-size="13" font-weight="bold" font-style="normal" text-anchor="middle" text-decoration="blink" x="157.5" y="30.25">authenticatorinterface</text></g><g id="SvgjsG1037" transform="matrix(1 0 0 1 10 50.375)" fill="#ffffff"><text id="SvgjsText1038" font-family="微软雅黑,黑体,Arial,宋体" fill="#000000" font-size="13" font-weight="false" font-style="normal" text-anchor="start" text-decoration="blink" x="0" y="14">+authentivate(user:User,password:String):Boolen</text></g></g><g id="SvgjsG1039"><path id="SvgjsPath1040" d="M545 403L545 354L545 354L545 320.2360534667969 " stroke-dasharray="none" stroke="#323232" stroke-width="2" fill="none" marker-end="url(#SvgjsMarker1041)"></path><g id="SvgjsG1043" transform="matrix(1 0 0 1 545 353.49303398874986)" fill="#ffffff"><path id="SvgjsPath1044" d="M0 0H0V0H0V0Z " fill="#ffffff" transform="translate(0 0)"></path><text id="SvgjsText1045" font-family="Microsoft Yahei,宋体" fill="#000000" font-size="13" font-weight="normal" font-style="normal" text-anchor="middle" text-decoration="blink" x="0" y="0"></text></g></g><g id="SvgjsG1046"><path id="SvgjsPath1047" d="M544 513L544 558.5L544 558.5L544 588.763916015625 " stroke-dasharray="none" stroke="#323232" stroke-width="2" fill="none" marker-end="url(#SvgjsMarker1048)"></path><g id="SvgjsG1050" transform="matrix(1 0 0 1 544 542.7569660112501)" fill="#ffffff"><path id="SvgjsPath1051" d="M0 0H0V0H0V0Z " fill="#ffffff" transform="translate(0 0)"></path><text id="SvgjsText1052" font-family="Microsoft Yahei,宋体" fill="#000000" font-size="13" font-weight="normal" font-style="normal" text-anchor="middle" text-decoration="blink" x="0" y="0"></text></g></g><g id="SvgjsG1053" transform="translate(542.5 317)" opacity="1"><g id="SvgjsG1054" transform="matrix(1 0 0 1 0 5.875)" fill="#ffffff"><text id="SvgjsText1055" font-family="微软雅黑,黑体,Arial,宋体" fill="#000000" font-size="13" font-weight="normal" font-style="normal" text-anchor="middle" text-decoration="blink" x="15" y="14">1</text></g></g><g id="SvgjsG1056" transform="translate(538 380)" opacity="1"><g id="SvgjsG1057" transform="matrix(1 0 0 1 0 3.375)" fill="#ffffff"><text id="SvgjsText1058" font-family="微软雅黑,黑体,Arial,宋体" fill="#000000" font-size="13" font-weight="normal" font-style="normal" text-anchor="middle" text-decoration="blink" x="19.5" y="14">1</text></g></g></g></g></svg>