<svg id="drawing" xmlns="http://www.w3.org/2000/svg" version="1.1" xmlns:xlink="http://www.w3.org/1999/xlink" width="674" height="153" viewBox="237 197.5 674 153"><defs id="SvgjsDefs1001"></defs><g id="SvgjsG1007"><path id="SvgjsPath1008" d="M237 197.5H911V350.5H237V197.5Z " fill-opacity="0" fill="none"></path><g id="SvgjsG1009"><g id="SvgjsG1010" transform="translate(257 219)" opacity="1"><path id="SvgjsPath1011" d="M0 4Q0 0 4 0L226 0Q230 0 230 4L230 106Q230 110 226 110L4 110Q0 110 0 106Z " stroke-dasharray="none" stroke="#323232" stroke-width="2" fill="#ffffff" opacity="1"></path><path id="SvgjsPath1012" d="M0 30L230 30M0 71L230 71 " stroke-dasharray="none" stroke="#323232" stroke-width="2" fill="none" opacity="1"></path><g id="SvgjsG1013" transform="matrix(1 0 0 1 10 6.875)" fill="#ffffff"><text id="SvgjsText1014" font-family="微软雅黑,黑体,Arial,宋体" fill="#000000" font-size="13" font-weight="bold" font-style="normal" text-anchor="middle" text-decoration="blink" x="105" y="15">logoutModule</text></g><g id="SvgjsG1015" transform="matrix(1 0 0 1 10 82.875)" fill="#ffffff"><text id="SvgjsText1016" font-family="微软雅黑,黑体,Arial,宋体" fill="#000000" font-size="13" font-weight="false" font-style="normal" text-anchor="start" text-decoration="blink" x="0" y="15">+logout()</text></g></g><g id="SvgjsG1017" transform="translate(661 217.5)" opacity="1"><path id="SvgjsPath1018" d="M0 4Q0 0 4 0L226 0Q230 0 230 4L230 109Q230 113 226 113L4 113Q0 113 0 109Z " stroke-dasharray="none" stroke="#323232" stroke-width="2" fill="#ffffff" opacity="1"></path><path id="SvgjsPath1019" d="M0 30L230 30M0 73L230 73 " stroke-dasharray="none" stroke="#323232" stroke-width="2" fill="none" opacity="1"></path><g id="SvgjsG1020" transform="matrix(1 0 0 1 10 6.875)" fill="#ffffff"><text id="SvgjsText1021" font-family="微软雅黑,黑体,Arial,宋体" fill="#000000" font-size="13" font-weight="bold" font-style="normal" text-anchor="middle" text-decoration="blink" x="105" y="15">Module</text></g></g><g id="SvgjsG1022"><path id="SvgjsPath1023" d="M487 261L573.5 261L573.5 261L660 261 " stroke-dasharray="none" stroke="#323232" stroke-width="2" fill="none"></path><g id="SvgjsG1024" transform="matrix(1 0 0 1 573.5 252.875)" fill="#ffffff"><path id="SvgjsPath1025" d="M0 0H0V0H0V0Z " fill="#ffffff" transform="translate(0 0)"></path><text id="SvgjsText1026" font-family="Microsoft Yahei,宋体" fill="#000000" font-size="13" font-weight="normal" font-style="normal" text-anchor="middle" text-decoration="blink" x="0" y="0"></text></g></g><g id="SvgjsG1027" transform="translate(451 223)" opacity="1"><g id="SvgjsG1028" transform="matrix(1 0 0 1 0 15.375)" fill="#ffffff"><text id="SvgjsText1029" font-family="微软雅黑,黑体,Arial,宋体" fill="#000000" font-size="13" font-weight="normal" font-style="normal" text-anchor="middle" text-decoration="blink" x="47.5" y="15">1</text></g></g><g id="SvgjsG1030" transform="translate(604 215)" opacity="1"><g id="SvgjsG1031" transform="matrix(1 0 0 1 0 23.375)" fill="#ffffff"><text id="SvgjsText1032" font-family="微软雅黑,黑体,Arial,宋体" fill="#000000" font-size="13" font-weight="normal" font-style="normal" text-anchor="middle" text-decoration="blink" x="43" y="15">1</text></g></g></g></g></svg>