<svg id="drawing" xmlns="http://www.w3.org/2000/svg" version="1.1" xmlns:xlink="http://www.w3.org/1999/xlink" width="669" height="559" viewBox="184 132 669 559"><defs id="SvgjsDefs1001"><marker id="SvgjsMarker1050" markerWidth="16.23606797749979" markerHeight="10.550836550532098" refX="15.23606797749979" refY="3.8990363547948754" viewBox="-1 -1.3763819204711738 16.23606797749979 10.550836550532098" orient="auto" markerUnits="userSpaceOnUse"><path id="SvgjsPath1051" d="M12 3.899036407470703L0 7.798072814941406V0Z " stroke="#323232" stroke-width="2" fill="#323232" transform="matrix(-1,1.2246467991473532e-16,-1.2246467991473532e-16,-1,14.23606797749979,7.79807270958975)"></path></marker><marker id="SvgjsMarker1057" markerWidth="16.23606797749979" markerHeight="10.550836550532098" refX="15.23606797749979" refY="3.8990363547948754" viewBox="-1 -1.3763819204711738 16.23606797749979 10.550836550532098" orient="auto" markerUnits="userSpaceOnUse"><path id="SvgjsPath1058" d="M12 3.899036407470703L0 7.798072814941406V0Z " stroke="#323232" stroke-width="2" fill="#323232" transform="matrix(-1,1.2246467991473532e-16,-1.2246467991473532e-16,-1,14.23606797749979,7.79807270958975)"></path></marker><marker id="SvgjsMarker1064" markerWidth="16.23606797749979" markerHeight="10.550836550532098" refX="15.23606797749979" refY="3.8990363547948754" viewBox="-1 -1.3763819204711738 16.23606797749979 10.550836550532098" orient="auto" markerUnits="userSpaceOnUse"><path id="SvgjsPath1065" d="M12 3.899036407470703L0 7.798072814941406V0Z " stroke="#323232" stroke-width="2" fill="#323232" transform="matrix(-1,1.2246467991473532e-16,-1.2246467991473532e-16,-1,14.23606797749979,7.79807270958975)"></path></marker></defs><g id="SvgjsG1007"><path id="SvgjsPath1008" d="M184 132H853V691H184V132Z " fill-opacity="0" fill="none"></path><g id="SvgjsG1009"><g id="SvgjsG1010" transform="translate(603 204)" opacity="1"><path id="SvgjsPath1011" d="M0 4Q0 0 4 0L226 0Q230 0 230 4L230 106Q230 110 226 110L4 110Q0 110 0 106Z " stroke-dasharray="none" stroke="#323232" stroke-width="2" fill="#ffffff" opacity="1"></path><path id="SvgjsPath1012" d="M0 30L230 30M0 71L230 71 " stroke-dasharray="none" stroke="#323232" stroke-width="2" fill="none" opacity="1"></path><g id="SvgjsG1013" transform="matrix(1 0 0 1 10 6.875)" fill="#ffffff"><text id="SvgjsText1014" font-family="微软雅黑,黑体,Arial,宋体" fill="#000000" font-size="13" font-weight="bold" font-style="normal" text-anchor="middle" text-decoration="blink" x="105" y="15">Module</text></g></g><g id="SvgjsG1015" transform="translate(204 152)" opacity="1"><path id="SvgjsPath1016" d="M0 4Q0 0 4 0L234 0Q238 0 238 4L238 332Q238 336 234 336L4 336Q0 336 0 332Z " stroke-dasharray="none" stroke="#323232" stroke-width="2" fill="#ffffff" opacity="1"></path><path id="SvgjsPath1017" d="M0 30L238 30M0 71L238 71 " stroke-dasharray="none" stroke="#323232" stroke-width="2" fill="none" opacity="1"></path><g id="SvgjsG1018" transform="matrix(1 0 0 1 10 6.875)" fill="#ffffff"><text id="SvgjsText1019" font-family="微软雅黑,黑体,Arial,宋体" fill="#000000" font-size="13" font-weight="bold" font-style="normal" text-anchor="middle" text-decoration="blink" x="109" y="15">UsersModule</text></g><g id="SvgjsG1020" transform="matrix(1 0 0 1 10 75.125)" fill="#ffffff"><text id="SvgjsText1021" font-family="微软雅黑,黑体,Arial,宋体" fill="#000000" font-size="13" font-weight="false" font-style="normal" text-anchor="start" text-decoration="blink" x="0" y="15">+show()</text><text id="SvgjsText1022" font-family="微软雅黑,黑体,Arial,宋体" fill="#000000" font-size="13" font-weight="false" font-style="normal" text-anchor="start" text-decoration="blink" x="0" y="31.25">+add()</text><text id="SvgjsText1023" font-family="微软雅黑,黑体,Arial,宋体" fill="#000000" font-size="13" font-weight="false" font-style="normal" text-anchor="start" text-decoration="blink" x="0" y="47.5">+edit()</text><text id="SvgjsText1024" font-family="微软雅黑,黑体,Arial,宋体" fill="#000000" font-size="13" font-weight="false" font-style="normal" text-anchor="start" text-decoration="blink" x="0" y="63.75">+processadd()</text><text id="SvgjsText1025" font-family="微软雅黑,黑体,Arial,宋体" fill="#000000" font-size="13" font-weight="false" font-style="normal" text-anchor="start" text-decoration="blink" x="0" y="80">+processedit()</text><text id="SvgjsText1026" font-family="微软雅黑,黑体,Arial,宋体" fill="#000000" font-size="13" font-weight="false" font-style="normal" text-anchor="start" text-decoration="blink" x="0" y="96.25">+processedelete()</text><text id="SvgjsText1027" font-family="微软雅黑,黑体,Arial,宋体" fill="#000000" font-size="13" font-weight="false" font-style="normal" text-anchor="start" text-decoration="blink" x="0" y="97.5"></text></g></g><g id="SvgjsG1028" transform="translate(204 561)" opacity="1"><path id="SvgjsPath1029" d="M0 4Q0 0 4 0L226 0Q230 0 230 4L230 106Q230 110 226 110L4 110Q0 110 0 106Z " stroke-dasharray="none" stroke="#323232" stroke-width="2" fill="#ffffff" opacity="1"></path><path id="SvgjsPath1030" d="M0 30L230 30M0 71L230 71 " stroke-dasharray="none" stroke="#323232" stroke-width="2" fill="none" opacity="1"></path><g id="SvgjsG1031" transform="matrix(1 0 0 1 10 6.875)" fill="#ffffff"><text id="SvgjsText1032" font-family="微软雅黑,黑体,Arial,宋体" fill="#000000" font-size="13" font-weight="bold" font-style="normal" text-anchor="middle" text-decoration="blink" x="105" y="15">User</text></g></g><g id="SvgjsG1033" transform="translate(600 357)" opacity="1"><path id="SvgjsPath1034" d="M0 4Q0 0 4 0L226 0Q230 0 230 4L230 106Q230 110 226 110L4 110Q0 110 0 106Z " stroke-dasharray="none" stroke="#323232" stroke-width="2" fill="#ffffff" opacity="1"></path><path id="SvgjsPath1035" d="M0 30L230 30M0 71L230 71 " stroke-dasharray="none" stroke="#323232" stroke-width="2" fill="none" opacity="1"></path><g id="SvgjsG1036" transform="matrix(1 0 0 1 10 6.875)" fill="#ffffff"><text id="SvgjsText1037" font-family="微软雅黑,黑体,Arial,宋体" fill="#000000" font-size="13" font-weight="bold" font-style="normal" text-anchor="middle" text-decoration="blink" x="105" y="15">UsersCollection</text></g></g><g id="SvgjsG1038" transform="translate(603 554)" opacity="1"><path id="SvgjsPath1039" d="M0 4Q0 0 4 0L226 0Q230 0 230 4L230 106Q230 110 226 110L4 110Q0 110 0 106Z " stroke-dasharray="none" stroke="#323232" stroke-width="2" fill="#ffffff" opacity="1"></path><path id="SvgjsPath1040" d="M0 30L230 30M0 71L230 71 " stroke-dasharray="none" stroke="#323232" stroke-width="2" fill="none" opacity="1"></path><g id="SvgjsG1041" transform="matrix(1 0 0 1 10 6.875)" fill="#ffffff"><text id="SvgjsText1042" font-family="微软雅黑,黑体,Arial,宋体" fill="#000000" font-size="13" font-weight="bold" font-style="normal" text-anchor="middle" text-decoration="blink" x="105" y="15">db</text></g></g><g id="SvgjsG1043"><path id="SvgjsPath1044" d="M442 258.75L522.5 258.75L522.5 259L603 259 " stroke-dasharray="none" stroke="#323232" stroke-width="2" fill="none"></path><g id="SvgjsG1045" transform="matrix(1 0 0 1 522.5 250.75)" fill="#ffffff"><path id="SvgjsPath1046" d="M0 0H0V0H0V0Z " fill="#ffffff" transform="translate(0 0)"></path><text id="SvgjsText1047" font-family="Microsoft Yahei,宋体" fill="#000000" font-size="13" font-weight="normal" font-style="normal" text-anchor="middle" text-decoration="blink" x="0" y="0"></text></g></g><g id="SvgjsG1048"><path id="SvgjsPath1049" d="M457.2360534667969 422L521 422L521 422L600 422 " stroke-dasharray="none" stroke="#323232" stroke-width="2" fill="none" marker-start="url(#SvgjsMarker1050)"></path><g id="SvgjsG1052" transform="matrix(1 0 0 1 528.6180339887499 413.875)" fill="#ffffff"><path id="SvgjsPath1053" d="M0 0H0V0H0V0Z " fill="#ffffff" transform="translate(0 0)"></path><text id="SvgjsText1054" font-family="Microsoft Yahei,宋体" fill="#000000" font-size="13" font-weight="normal" font-style="normal" text-anchor="middle" text-decoration="blink" x="0" y="0"></text></g></g><g id="SvgjsG1055"><path id="SvgjsPath1056" d="M436.3159484863281 502.356689453125L436.3159484863281 520.560302734375L768 520.560302734375L768 554 " stroke-dasharray="none" stroke="#323232" stroke-width="2" fill="none" marker-start="url(#SvgjsMarker1057)"></path><g id="SvgjsG1059" transform="matrix(1 0 0 1 609.7760138454241 512.4353073792141)" fill="#ffffff"><path id="SvgjsPath1060" d="M0 0H0V0H0V0Z " fill="#ffffff" transform="translate(0 0)"></path><text id="SvgjsText1061" font-family="Microsoft Yahei,宋体" fill="#000000" font-size="13" font-weight="normal" font-style="normal" text-anchor="middle" text-decoration="blink" x="0" y="0"></text></g></g><g id="SvgjsG1062"><path id="SvgjsPath1063" d="M310 503.2360534667969L310 524.5L310 524.5L310 561 " stroke-dasharray="none" stroke="#323232" stroke-width="2" fill="none" marker-start="url(#SvgjsMarker1064)"></path><g id="SvgjsG1066" transform="matrix(1 0 0 1 310 523.9930339887499)" fill="#ffffff"><path id="SvgjsPath1067" d="M0 0H0V0H0V0Z " fill="#ffffff" transform="translate(0 0)"></path><text id="SvgjsText1068" font-family="Microsoft Yahei,宋体" fill="#000000" font-size="13" font-weight="normal" font-style="normal" text-anchor="middle" text-decoration="blink" x="0" y="0"></text></g></g><g id="SvgjsG1069" transform="translate(575 227)" opacity="1"><g id="SvgjsG1070" transform="matrix(1 0 0 1 0 8.875)" fill="#ffffff"><text id="SvgjsText1071" font-family="微软雅黑,黑体,Arial,宋体" fill="#000000" font-size="13" font-weight="normal" font-style="normal" text-anchor="middle" text-decoration="blink" x="14" y="15">1</text></g></g><g id="SvgjsG1072" transform="translate(451 384)" opacity="1"><g id="SvgjsG1073" transform="matrix(1 0 0 1 0 14.375)" fill="#ffffff"><text id="SvgjsText1074" font-family="微软雅黑,黑体,Arial,宋体" fill="#000000" font-size="13" font-weight="normal" font-style="normal" text-anchor="middle" text-decoration="blink" x="10" y="15">1</text></g></g><g id="SvgjsG1075" transform="translate(565 390)" opacity="1"><g id="SvgjsG1076" transform="matrix(1 0 0 1 0 4.875)" fill="#ffffff"><text id="SvgjsText1077" font-family="微软雅黑,黑体,Arial,宋体" fill="#000000" font-size="13" font-weight="normal" font-style="normal" text-anchor="middle" text-decoration="blink" x="14" y="15">1</text></g></g><g id="SvgjsG1078" transform="translate(451 484)" opacity="1"><g id="SvgjsG1079" transform="matrix(1 0 0 1 0 6.375)" fill="#ffffff"><text id="SvgjsText1080" font-family="微软雅黑,黑体,Arial,宋体" fill="#000000" font-size="13" font-weight="normal" font-style="normal" text-anchor="middle" text-decoration="blink" x="10" y="15">1</text></g></g><g id="SvgjsG1081" transform="translate(762 516)" opacity="1"><g id="SvgjsG1082" transform="matrix(1 0 0 1 0 16.375)" fill="#ffffff"><text id="SvgjsText1083" font-family="微软雅黑,黑体,Arial,宋体" fill="#000000" font-size="13" font-weight="normal" font-style="normal" text-anchor="middle" text-decoration="blink" x="21" y="15">1</text></g></g><g id="SvgjsG1084" transform="translate(262 488)" opacity="1"><g id="SvgjsG1085" transform="matrix(1 0 0 1 0 8.375)" fill="#ffffff"><text id="SvgjsText1086" font-family="微软雅黑,黑体,Arial,宋体" fill="#000000" font-size="13" font-weight="normal" font-style="normal" text-anchor="middle" text-decoration="blink" x="26" y="15">1</text></g></g><g id="SvgjsG1087" transform="translate(430 229)" opacity="1"><g id="SvgjsG1088" transform="matrix(1 0 0 1 0 6.875)" fill="#ffffff"><text id="SvgjsText1089" font-family="微软雅黑,黑体,Arial,宋体" fill="#000000" font-size="13" font-weight="normal" font-style="normal" text-anchor="middle" text-decoration="blink" x="20.5" y="15">1</text></g></g><g id="SvgjsG1090" transform="translate(234 493)" opacity="1"><g id="SvgjsG1091" transform="matrix(1 0 0 1 0 49.375)" fill="#ffffff"><text id="SvgjsText1092" font-family="微软雅黑,黑体,Arial,宋体" fill="#000000" font-size="13" font-weight="normal" font-style="normal" text-anchor="middle" text-decoration="blink" x="50.5" y="15">0..*</text></g></g></g></g></svg>