<svg id="drawing" xmlns="http://www.w3.org/2000/svg" version="1.1" xmlns:xlink="http://www.w3.org/1999/xlink" width="632" height="163" viewBox="187 364 632 163"><defs id="SvgjsDefs1001"><marker id="SvgjsMarker1028" markerWidth="16.23606797749979" markerHeight="10.550836550532098" refX="-1" refY="3.8990363547948754" viewBox="-1 -1.3763819204711738 16.23606797749979 10.550836550532098" orient="auto" markerUnits="userSpaceOnUse"><path id="SvgjsPath1029" d="M12 3.899036407470703L0 7.798072814941406V0Z " stroke="#323232" stroke-width="2" fill="#323232" transform="matrix(1,0,0,1,0,0)"></path></marker></defs><g id="SvgjsG1007"><path id="SvgjsPath1008" d="M187 364H819V527H187V364Z " fill-opacity="0" fill="none"></path><g id="SvgjsG1009"><g id="SvgjsG1010" transform="translate(207 397)" opacity="1"><path id="SvgjsPath1011" d="M0 4Q0 0 4 0L187 0Q191 0 191 4L191 106Q191 110 187 110L4 110Q0 110 0 106Z " stroke-dasharray="none" stroke="#323232" stroke-width="2" fill="#ffffff" opacity="1"></path><path id="SvgjsPath1012" d="M0 30L191 30M0 71L191 71 " stroke-dasharray="none" stroke="#323232" stroke-width="2" fill="none" opacity="1"></path><g id="SvgjsG1013" transform="matrix(1 0 0 1 10 6.875)" fill="#ffffff"><text id="SvgjsText1014" font-family="微软雅黑,黑体,Arial,宋体" fill="#000000" font-size="13" font-weight="bold" font-style="normal" text-anchor="middle" text-decoration="blink" x="85.5" y="14">MyObject</text></g><g id="SvgjsG1015" transform="matrix(1 0 0 1 10 39.875)" fill="#ffffff"><text id="SvgjsText1016" font-family="微软雅黑,黑体,Arial,宋体" fill="#000000" font-size="13" font-weight="false" font-style="normal" text-anchor="start" text-decoration="blink" x="0" y="14">+name:String</text></g><g id="SvgjsG1017" transform="matrix(1 0 0 1 10 82.875)" fill="#ffffff"><text id="SvgjsText1018" font-family="微软雅黑,黑体,Arial,宋体" fill="#000000" font-size="13" font-weight="false" font-style="normal" text-anchor="start" text-decoration="blink" x="0" y="14">+setName(name)</text></g></g><g id="SvgjsG1019" transform="translate(569 384)" opacity="1"><path id="SvgjsPath1020" d="M0 4Q0 0 4 0L226 0Q230 0 230 4L230 106Q230 110 226 110L4 110Q0 110 0 106Z " stroke-dasharray="none" stroke="#323232" stroke-width="2" fill="#ffffff" opacity="1"></path><path id="SvgjsPath1021" d="M0 30L230 30M0 71L230 71 " stroke-dasharray="none" stroke="#323232" stroke-width="2" fill="none" opacity="1"></path><g id="SvgjsG1022" transform="matrix(1 0 0 1 10 6.875)" fill="#ffffff"><text id="SvgjsText1023" font-family="微软雅黑,黑体,Arial,宋体" fill="#000000" font-size="13" font-weight="bold" font-style="normal" text-anchor="middle" text-decoration="blink" x="105" y="14">MyObjectStrategy</text></g><g id="SvgjsG1024" transform="matrix(1 0 0 1 10 82.875)" fill="#ffffff"><text id="SvgjsText1025" font-family="微软雅黑,黑体,Arial,宋体" fill="#000000" font-size="13" font-weight="false" font-style="normal" text-anchor="start" text-decoration="blink" x="0" y="14">+change(MyObject)</text></g></g><g id="SvgjsG1026"><path id="SvgjsPath1027" d="M569 439L483.5 439L483.5 439L413.2360534667969 439 " stroke-dasharray="none" stroke="#323232" stroke-width="2" fill="none" marker-end="url(#SvgjsMarker1028)"></path><g id="SvgjsG1030" transform="matrix(1 0 0 1 491.11803398874986 430.875)" fill="#ffffff"><path id="SvgjsPath1031" d="M0 0H0V0H0V0Z " fill="#ffffff" transform="translate(0 0)"></path><text id="SvgjsText1032" font-family="Microsoft Yahei,宋体" fill="#000000" font-size="13" font-weight="normal" font-style="normal" text-anchor="middle" text-decoration="blink" x="0" y="0"></text></g></g><g id="SvgjsG1033" transform="translate(360 384)" opacity="1"><g id="SvgjsG1034" transform="matrix(1 0 0 1 0 26.375)" fill="#ffffff"><text id="SvgjsText1035" font-family="微软雅黑,黑体,Arial,宋体" fill="#000000" font-size="13" font-weight="normal" font-style="normal" text-anchor="middle" text-decoration="blink" x="56.5" y="14">1</text></g></g><g id="SvgjsG1036" transform="translate(500 356)" opacity="1"><g id="SvgjsG1037" transform="matrix(1 0 0 1 0 57.875)" fill="#ffffff"><text id="SvgjsText1038" font-family="微软雅黑,黑体,Arial,宋体" fill="#000000" font-size="13" font-weight="normal" font-style="normal" text-anchor="middle" text-decoration="blink" x="52" y="14">1</text></g></g></g></g></svg>